<svg xmlns="http://www.w3.org/2000/svg" width="64" height="64" viewBox="0 0 64 64" shape-rendering="crispEdges" role="img" aria-label="hafiza"><title>hafiza</title><rect x="1" y="1" width="62" height="62" rx="14" fill="#FBFAF7" stroke="#E7E4DC" stroke-width="2" shape-rendering="auto"/><rect x="28" y="12" width="8" height="4" fill="#37352F"/><rect x="20" y="16" width="8" height="4" fill="#37352F"/><rect x="28" y="16" width="8" height="4" fill="#448361"/><rect x="36" y="16" width="8" height="4" fill="#37352F"/><rect x="12" y="20" width="8" height="4" fill="#37352F"/><rect x="20" y="20" width="24" height="4" fill="#448361"/><rect x="44" y="20" width="8" height="4" fill="#37352F"/><rect x="16" y="24" width="8" height="4" fill="#37352F"/><rect x="24" y="24" width="16" height="4" fill="#448361"/><rect x="40" y="24" width="8" height="4" fill="#37352F"/><rect x="12" y="28" width="8" height="4" fill="#37352F"/><rect x="20" y="28" width="4" height="4" fill="#B8D0C3"/><rect x="24" y="28" width="16" height="4" fill="#37352F"/><rect x="40" y="28" width="4" height="4" fill="#B8D0C3"/><rect x="44" y="28" width="8" height="4" fill="#37352F"/><rect x="16" y="32" width="8" height="4" fill="#37352F"/><rect x="24" y="32" width="16" height="4" fill="#B8D0C3"/><rect x="40" y="32" width="8" height="4" fill="#37352F"/><rect x="12" y="36" width="8" height="4" fill="#37352F"/><rect x="20" y="36" width="4" height="4" fill="#B8D0C3"/><rect x="24" y="36" width="16" height="4" fill="#37352F"/><rect x="40" y="36" width="4" height="4" fill="#B8D0C3"/><rect x="44" y="36" width="8" height="4" fill="#37352F"/><rect x="16" y="40" width="8" height="4" fill="#37352F"/><rect x="24" y="40" width="16" height="4" fill="#B8D0C3"/><rect x="40" y="40" width="8" height="4" fill="#37352F"/><rect x="24" y="44" width="16" height="4" fill="#37352F"/></svg>
